<svg width="15" height="16" xmlns="http://www.w3.org/2000/svg"><defs><linearGradient x1="1" x2="0" y2="1" id="a"><stop offset="0" stop-color="#FF8278"/><stop offset="1" stop-color="#FFE38A"/></linearGradient></defs><path d="M14.7 1h-.3L13 2.4A7.5 7.5 0 0 0 6.2.1C3.3.6 1 3 .2 6v.3l.3.2h2c.2 0 .3-.1.4-.3a5.1 5.1 0 0 1 4.7-3.4c1.3 0 2.6.6 3.6 1.6L9.8 5.7c0 .1-.1.3 0 .4l.2.2h4.6c.2 0 .4-.1.4-.3V1.2l-.3-.3z" fill="#FF3E7E"/><path d="M14.5 0h-2.1c-.1 0-.3 0-.3.2a5.1 5.1 0 0 1-4.7 3.4C6 3.6 4.7 3.1 3.8 2L5.2.6V.2S5.1 0 5 0H.3C.1 0 0 .2 0 .4V5c0 .2 0 .3.2.3h.4L1.9 4a7.5 7.5 0 0 0 6.8 2.2c3-.5 5.3-2.8 6.1-5.8V.1l-.3-.1z" transform="translate(0 9.5)" fill="url(#a)"/></svg>