<svg width="16" height="16" xmlns="http://www.w3.org/2000/svg"><defs><linearGradient x1="1" x2="0" y2="1" id="a"><stop offset="0" stop-color="#FF8278"/><stop offset="1" stop-color="#FFE38A"/></linearGradient></defs><path d="M10.3 5.2V.5c0-.3-.2-.5-.5-.5H.5C.2 0 0 .2 0 .5v9.3c0 .3.2.5.5.5h4.7V5.7c0-.3.2-.5.5-.5h4.6z" fill="#FF3E7E"/><path d="M6.2 6.2h3.6v3.6H6.2V6.2z" fill="#FFF"/><path d="M9.8 0H5.1v4.6c0 .3-.2.5-.5.5H0v4.7c0 .3.2.5.5.5h9.3c.3 0 .5-.2.5-.5V.5c0-.3-.2-.5-.5-.5z" transform="translate(5.7 5.7)" fill="url(#a)"/></svg>