<svg xmlns="http://www.w3.org/2000/svg" viewBox="0 0 12 16"><defs><linearGradient x1="100%" y1="21.6%" x2="0%" y2="78.4%" id="a"><stop stop-color="#FF8278" offset="0%"/><stop stop-color="#FFE38A" offset="100%"/></linearGradient></defs><g fill="none" fill-rule="evenodd"><path d="M3.7 4.2a2.1 2.1 0 014.3 0v2.1h2V4.2a4.2 4.2 0 00-8.3 0v2.1h2V4.2z" fill="url(#a)"/><path d="M10.6 7H1C.5 7 0 7.5 0 8V15c0 .6.5 1 1.1 1h9.5c.6 0 1.1-.4 1.1-1V8c0-.6-.5-1.1-1.1-1.1zm-3.8 6.5H4.9l.4-2c-.3-.2-.5-.5-.5-1a1.1 1.1 0 012.2 0c0 .5-.3.8-.6 1l.4 2z" fill="#FF3E7E" fill-rule="nonzero"/></g></svg>